<?xml version="1.0" encoding="utf-8"?>
<!-- Generator: Adobe Illustrator 24.1.3, SVG Export Plug-In . SVG Version: 6.00 Build 0)  -->
<svg version="1.1" id="Layer_1" xmlns="http://www.w3.org/2000/svg" xmlns:xlink="http://www.w3.org/1999/xlink" x="0px" y="0px"
	 viewBox="0 0 5623 419" style="enable-background:new 0 0 5623 419;" xml:space="preserve">
<style type="text/css">
	.st0{fill:#FFDF00;}
</style>
<g>
	<polygon class="st0" points="-17.7,419 -176.8,419 3.2,0 162.3,0 	"/>
	<polygon points="140.8,419 -18.3,419 161.7,0 320.8,0 	"/>
	<polygon class="st0" points="299.3,419 140.2,419 320.2,0 479.3,0 	"/>
	<polygon points="457.8,419 298.7,419 478.7,0 637.8,0 	"/>
	<polygon class="st0" points="616.3,419 457.2,419 637.2,0 796.3,0 	"/>
	<polygon points="774.8,419 615.6,419 795.6,0 954.8,0 	"/>
	<polygon class="st0" points="933.3,419 774.1,419 954.1,0 1113.3,0 	"/>
	<polygon points="1091.8,419 932.6,419 1112.6,0 1271.8,0 	"/>
	<polygon class="st0" points="1250.2,419 1091.1,419 1271.1,0 1430.2,0 	"/>
	<polygon points="1408.7,419 1249.6,419 1429.6,0 1588.7,0 	"/>
	<polygon class="st0" points="1567.2,419 1408.1,419 1588.1,0 1747.2,0 	"/>
	<polygon points="1725.7,419 1566.6,419 1746.6,0 1905.7,0 	"/>
	<polygon class="st0" points="1884.2,419 1725.1,419 1905.1,0 2064.2,0 	"/>
	<polygon points="2042.7,419 1883.6,419 2063.6,0 2222.7,0 	"/>
	<polygon class="st0" points="2201.2,419 2042.1,419 2222.1,0 2381.2,0 	"/>
	<polygon points="2359.7,419 2200.6,419 2380.6,0 2539.7,0 	"/>
	<polygon class="st0" points="2518.2,419 2359.1,419 2539.1,0 2698.2,0 	"/>
	<polygon points="2676.7,419 2517.6,419 2697.6,0 2856.7,0 	"/>
	<polygon class="st0" points="2835.2,419 2676.1,419 2856.1,0 3015.2,0 	"/>
	<polygon points="2993.7,419 2834.6,419 3014.6,0 3173.7,0 	"/>
	<polygon class="st0" points="3152.2,419 2993.1,419 3173.1,0 3332.2,0 	"/>
	<polygon points="3310.7,419 3151.6,419 3331.6,0 3490.7,0 	"/>
	<polygon class="st0" points="3469.2,419 3310,419 3490,0 3649.2,0 	"/>
	<polygon points="3627.7,419 3468.5,419 3648.5,0 3807.7,0 	"/>
</g>
<g>
	<polygon class="st0" points="3785.4,419 3626.3,419 3806.3,0 3965.4,0 	"/>
	<polygon points="3943.9,419 3784.8,419 3964.8,0 4123.9,0 	"/>
	<polygon class="st0" points="4102.4,419 3943.3,419 4123.3,0 4282.4,0 	"/>
	<polygon points="4260.9,419 4101.8,419 4281.8,0 4440.9,0 	"/>
	<polygon class="st0" points="4419.4,419 4260.3,419 4440.3,0 4599.4,0 	"/>
	<polygon points="4577.9,419 4418.8,419 4598.8,0 4757.9,0 	"/>
	<polygon class="st0" points="4736.4,419 4577.3,419 4757.3,0 4916.4,0 	"/>
	<polygon points="4894.9,419 4735.7,419 4915.7,0 5074.9,0 	"/>
	<polygon class="st0" points="5053.4,419 4894.2,419 5074.2,0 5233.4,0 	"/>
	<polygon points="5211.8,419 5052.7,419 5232.7,0 5391.8,0 	"/>
	<polygon class="st0" points="5370.3,419 5211.2,419 5391.2,0 5550.3,0 	"/>
	<polygon points="5528.8,419 5369.7,419 5549.7,0 5708.8,0 	"/>
	<polygon class="st0" points="5687.3,419 5528.2,419 5708.2,0 5867.3,0 	"/>
	<polygon points="5845.8,419 5686.7,419 5866.7,0 6025.8,0 	"/>
	<polygon class="st0" points="6004.3,419 5845.2,419 6025.2,0 6184.3,0 	"/>
	<polygon points="6162.8,419 6003.7,419 6183.7,0 6342.8,0 	"/>
	<polygon class="st0" points="6321.3,419 6162.2,419 6342.2,0 6501.3,0 	"/>
	<polygon points="6479.8,419 6320.7,419 6500.7,0 6659.8,0 	"/>
	<polygon class="st0" points="6638.3,419 6479.2,419 6659.2,0 6818.3,0 	"/>
	<polygon points="6796.8,419 6637.7,419 6817.7,0 6976.8,0 	"/>
	<polygon class="st0" points="6955.3,419 6796.2,419 6976.2,0 7135.3,0 	"/>
	<polygon points="7113.8,419 6954.7,419 7134.7,0 7293.8,0 	"/>
	<polygon class="st0" points="7272.3,419 7113.2,419 7293.2,0 7452.3,0 	"/>
	<polygon points="7430.8,419 7271.6,419 7451.6,0 7610.8,0 	"/>
</g>
</svg>
